<?xml version="1.0" encoding="utf-8"?>
<!-- Generator: Adobe Illustrator 21.0.0, SVG Export Plug-In . SVG Version: 6.00 Build 0)  -->
<svg version="1.1" id="Layer_1" xmlns="http://www.w3.org/2000/svg" xmlns:xlink="http://www.w3.org/1999/xlink" x="0px" y="0px"
	 viewBox="0 0 24 24" style="enable-background:new 0 0 24 24;" xml:space="preserve">
<style type="text/css">
	.st0{fill:#FFFFFF;}
</style>
<g>
	<g>
		<path class="st0" d="M11.1,23.5C10,23.5,9,22.5,9,21.4l0-1.5c-4.1,0.9-5-1.8-5-1.8C3.3,16.4,2.4,16,2.4,16C1,15,2.5,15.1,2.5,15.1
			c1.5,0.1,2.3,1.5,2.3,1.5c1.3,2.3,3.5,1.6,4.3,1.2c0.1-1,0.5-1.6,0.9-2c-3.3-0.4-6.8-1.7-6.8-7.3c0-1.6,0.6-2.9,1.5-4
			C4.6,4.1,4.1,2.6,4.9,0.6c0,0,1.2-0.4,4.1,1.5c1.2-0.3,2.5-0.5,3.7-0.5c1.3,0,2.5,0.2,3.7,0.5c2.8-1.9,4.1-1.5,4.1-1.5
			c0.8,2,0.3,3.6,0.1,3.9c1,1,1.5,2.4,1.5,4c0,5.7-3.5,7-6.8,7.3c0.5,0.5,1,1.4,1,2.8c0,2,0,2.8,0,2.8c0,1.2-0.9,2.1-2.1,2.1H11.1z
			 M11.1,23.5"/>
	</g>
</g>
</svg>
